<svg xmlns="http://www.w3.org/2000/svg" width="31.88" height="32" viewBox="0 0 256 256" xml:space="preserve"><path fill="#CECECE" d="M32.035 209.177c-7.535 0-13.665-6.13-13.665-13.665V71.736c0-7.535 6.13-13.665 13.665-13.665h191.931c7.535 0 13.665 6.13 13.665 13.665v123.776c0 7.535-6.13 13.665-13.665 13.665H32.035z"/><path fill="#E2E2E2" d="M223.965 58.071h-14.667c7.534 0 13.665 6.13 13.665 13.665v123.776c0 7.534-6.13 13.665-13.665 13.665h14.667c7.535 0 13.665-6.13 13.665-13.665V71.736c0-7.535-6.13-13.665-13.665-13.665z"/><path fill="#AFAFAF" d="M32.035 58.071h14.667c-7.534 0-13.665 6.13-13.665 13.665v123.776c0 7.534 6.13 13.665 13.665 13.665H32.035c-7.535 0-13.665-6.13-13.665-13.665V71.736c0-7.535 6.13-13.665 13.665-13.665z"/><path fill="#63BCE7" d="M229.221 71.76v123.728a5.28 5.28 0 0 1-5.28 5.28H32.059a5.28 5.28 0 0 1-5.28-5.28V71.76a5.28 5.28 0 0 1 5.28-5.28h191.882a5.28 5.28 0 0 1 5.28 5.28z"/><path fill="#63E2E7" d="M223.941 66.48h-14.667a5.28 5.28 0 0 1 5.28 5.28v123.728a5.28 5.28 0 0 1-5.28 5.28h14.667a5.28 5.28 0 0 0 5.28-5.28V71.76a5.28 5.28 0 0 0-5.28-5.28z"/><path fill="#6377E7" d="M32.059 66.48h14.667a5.28 5.28 0 0 0-5.28 5.28v123.728a5.28 5.28 0 0 0 5.28 5.28H32.059a5.28 5.28 0 0 1-5.28-5.28V71.76a5.28 5.28 0 0 1 5.28-5.28z"/><path fill="#CECECE" d="M128 209.177H8.667l3.053 7.024a17.333 17.333 0 0 0 15.896 10.423h200.769a17.333 17.333 0 0 0 15.896-10.423l3.053-7.024H128z"/><path fill="#E2E2E2" d="m232.667 209.177-3.053 7.024a17.333 17.333 0 0 1-15.896 10.423h14.667a17.333 17.333 0 0 0 15.896-10.423l3.053-7.024h-14.667z"/><path fill="#AFAFAF" d="m23.333 209.177 3.053 7.024a17.333 17.333 0 0 0 15.896 10.423H27.615a17.333 17.333 0 0 1-15.896-10.423l-3.053-7.024h14.667z"/><path fill="#707070" d="m82.442 209.177 4.22 5.388a8.7 8.7 0 0 0 6.85 3.336h68.975a8.7 8.7 0 0 0 6.85-3.336l4.221-5.388H82.442z"/><g><path fill="#F8AF23" d="M71.395 145.43V32.737c0-7.917 6.418-14.335 14.335-14.335h98.875V145.43H71.395z"/><path fill="#9E9E9E" d="M184.605 159.762H83.932c-6.924 0-12.537-5.613-12.537-12.537v-3.592c0-6.924 5.613-12.537 12.537-12.537h100.673v28.666z"/><path fill="#F46275" d="m104.191 172.245-9.827-8.283-9.828 8.283V145.43h19.655z"/></g><path fill="#F46275" d="M128 100.639c10.356 0 19.671-4.449 26.144-11.537-4.962-9.364-14.806-15.745-26.144-15.745s-21.182 6.381-26.144 15.745c6.473 7.088 15.788 11.537 26.144 11.537z"/><circle transform="rotate(-22.5 127.994 60.344)" fill="#9E9E9E" cx="128" cy="60.346" r="13.011"/><g fill="#3F3679"><path d="m245.656 216.799 3.053-7.023a1.499 1.499 0 0 0-1.376-2.098h-14.351c3.722-2.766 6.148-7.182 6.148-12.165V71.736c0-8.362-6.803-15.165-15.164-15.165h-37.86V18.403a1.5 1.5 0 0 0-1.5-1.5H85.729c-.387 0-.766.031-1.146.058-.016-.001-.031-.005-.048-.005-.05 0-.096.01-.145.015-8.106.683-14.496 7.487-14.496 15.767v23.834h-37.86c-8.362 0-15.165 6.803-15.165 15.165v123.777c0 4.983 2.427 9.399 6.149 12.165H8.667a1.5 1.5 0 0 0-1.375 2.098l3.053 7.023a18.808 18.808 0 0 0 7.081 8.326H9.32a1.5 1.5 0 1 0 0 3h237.36a1.5 1.5 0 1 0 0-3h-8.105a18.816 18.816 0 0 0 7.081-8.327zm-62.551-72.869h-69.611a1.5 1.5 0 1 0 0 3h69.611v11.333h-77.414V145.43a1.5 1.5 0 0 0-1.5-1.5H84.536a1.5 1.5 0 0 0-1.5 1.5v12.787c-5.667-.458-10.141-5.208-10.141-10.991v-3.592c0-6.085 4.951-11.037 11.037-11.037h99.174v11.333zm-80.414 3v22.089l-7.361-6.204a1.499 1.499 0 0 0-1.934 0l-7.361 6.204V146.93h16.656zm-32.796-3.296v3.592c0 7.438 5.819 13.526 13.141 13.991v11.028a1.5 1.5 0 0 0 2.467 1.147l8.861-7.468 8.861 7.468a1.503 1.503 0 0 0 1.599.213c.529-.246.868-.777.868-1.36v-10.983h78.914a1.5 1.5 0 0 0 1.5-1.5V67.98h37.836a3.784 3.784 0 0 1 3.779 3.78v123.728a3.784 3.784 0 0 1-3.779 3.78H32.059a3.785 3.785 0 0 1-3.78-3.78V71.76a3.785 3.785 0 0 1 3.78-3.78h37.836v75.654zM83.036 20.192v94.087a1.5 1.5 0 1 0 3 0V19.903h97.069v109.694H83.932c-4.479 0-8.465 2.116-11.037 5.393V32.737c0-6.153 4.354-11.303 10.141-12.545zM19.87 195.513V71.736c0-6.708 5.457-12.165 12.165-12.165h37.86v5.409H32.059a6.788 6.788 0 0 0-6.78 6.78v123.728a6.788 6.788 0 0 0 6.78 6.78h191.882a6.787 6.787 0 0 0 6.779-6.78V71.76a6.787 6.787 0 0 0-6.779-6.78h-37.836v-5.409h37.86c6.707 0 12.164 5.457 12.164 12.165v123.777c0 6.708-5.457 12.165-12.164 12.165H32.035c-6.708-.001-12.165-5.458-12.165-12.165zm150.608 15.164-2.32 2.963a7.16 7.16 0 0 1-5.67 2.761H93.513a7.155 7.155 0 0 1-5.669-2.761l-2.321-2.963h84.955zm57.907 14.447H27.615c-4.787 0-9.22-2.156-12.179-5.723h29.14a1.5 1.5 0 1 0 0-3H13.478c-.132-.263-.264-.526-.383-.798l-2.141-4.925h70.758l3.77 4.813a10.137 10.137 0 0 0 8.031 3.911h68.975c3.157 0 6.085-1.425 8.031-3.911l3.769-4.813h70.758l-2.142 4.926c-.118.272-.25.535-.382.798h-31.098a1.5 1.5 0 1 0 0 3h29.14a15.82 15.82 0 0 1-12.179 5.722z"/><path d="M65.22 216.401H54.845a1.5 1.5 0 1 0 0 3H65.22a1.5 1.5 0 1 0 0-3zM201.155 216.401H190.78a1.5 1.5 0 1 0 0 3h10.375a1.5 1.5 0 1 0 0-3zM27.323 236.097H9.32a1.5 1.5 0 1 0 0 3h18.003a1.5 1.5 0 1 0 0-3zM246.68 236.097h-18.003a1.5 1.5 0 1 0 0 3h18.003a1.5 1.5 0 1 0 0-3zM218.479 236.097H37.521a1.5 1.5 0 1 0 0 3H218.48a1.5 1.5 0 1 0-.001-3zM128 102.139a36.987 36.987 0 0 0 27.251-12.026 1.497 1.497 0 0 0 .218-1.713 31.017 31.017 0 0 0-20.019-15.624c4.222-2.54 7.061-7.153 7.061-12.429 0-8.001-6.51-14.51-14.511-14.51s-14.511 6.509-14.511 14.51c0 5.276 2.839 9.889 7.061 12.429A31.014 31.014 0 0 0 100.531 88.4c-.297.56-.21 1.246.217 1.713A36.99 36.99 0 0 0 128 102.139zm-11.511-41.793c0-6.347 5.164-11.51 11.511-11.51 6.347 0 11.511 5.164 11.511 11.51 0 6.347-5.164 11.511-11.511 11.511-6.347-.001-11.511-5.164-11.511-11.511zM128 74.856a28.027 28.027 0 0 1 24.301 14.013A33.985 33.985 0 0 1 128 99.138a33.983 33.983 0 0 1-24.301-10.269A28.027 28.027 0 0 1 128 74.856z"/></g></svg>